# xmcd
#
# Track frame offsets: 
#        150
#        18367
#        35720
#        51097
#        68787
#        87912
#        108575
#        127512
#        144680
#        161125
#        178500
#        194707
#
# Disc length: 2801 seconds
#
# Revision: 4
# Processed by: cddbd v1.5.2PL0 Copyright (c) Steve Scherf et al.
# Submitted via: ExactAudioCopyFreeDBPlugin 1.0
#
DISCID=a70aef0c
DTITLE=陳慧嫻 - 正視愛
DYEAR=1999
DGENRE=blues
TTITLE0=正視愛
TTITLE1=甚麼都想要
TTITLE2=山手線
TTITLE3=靈犀
TTITLE4=長情
TTITLE5=他知道我知道
TTITLE6=流水行雲
TTITLE7=想算命
TTITLE8=心潮
TTITLE9=明天已是下世紀
TTITLE10=正是愛 (Remix)
TTITLE11=甚麼都想要 (Not as Sad Verison)
EXTD=
EXTT0=
EXTT1=
EXTT2=
EXTT3=
EXTT4=
EXTT5=
EXTT6=
EXTT7=
EXTT8=
EXTT9=
EXTT10=
EXTT11=
PLAYORDER=
